<svg id="Capa_1" data-name="Capa 1" xmlns="http://www.w3.org/2000/svg" viewBox="0 0 229.09 224.34"><defs><style>.cls-1{fill:none;stroke:#e52521;stroke-linejoin:round;stroke-width:12px;}.cls-2{fill:#e52521;}</style></defs><title>MA</title><path class="cls-1" d="M236,185.09H453.05V397.43H236Z" transform="translate(-229.97 -179.09)"/><path class="cls-2" d="M359.2,315.54q25.79,5.63,56.38,20.56l-11,22q-28.43-17.62-45.36-21.87,0,14.75-10,24.74-9.3,9.36-29.45,9.36-16,0-26-10.05-7.29-7.23-7.29-19.8a26,26,0,0,1,8-19.12q10-10,30.14-10,5.63,0,13.55.46V298.15l-52.36,1.38V278.4L338.08,277V260.26l-64.76,2.07V241.2l64.76-2.06v-27H354.5q16.81,3,4.7,11.13v14.24l56.49-2.07v21.13l-56.49,2.06v17.46L404,274.73v21.12l-44.78,1.38Zm-21.64,16.37a67.2,67.2,0,0,0-11.65-.81q-12.23,0-16.71,4.42a8.73,8.73,0,0,0-2.35,6.37,7.15,7.15,0,0,0,2.35,5q3.8,3.74,12.57,3.73A15.3,15.3,0,0,0,333,346.2Q338,341.15,337.56,331.91Z" transform="translate(-229.97 -179.09)"/></svg>